<svg version="1.2" baseProfile="tiny-ps" xmlns="http://www.w3.org/2000/svg" viewBox="0 0 331 331" width="331" height="331">
	<title>&lt;Group&gt;</title>
	<style>
		tspan { white-space:pre }
		.shp0 { fill: #2360a1 } 
		.shp1 { fill: #f8ca4d } 
	</style>
	<path id="Forma 1" class="shp0" d="M165.5 331C73.98 331 0 257.02 0 165.5C0 73.98 73.98 0 165.5 0C257.02 0 331 73.98 331 165.5C331 257.02 257.02 331 165.5 331Z" />
	<g id="&lt;Group&gt;">
		<path id="&lt;Path&gt;" class="shp1" d="M197.63 162.09C197.63 179.03 183.9 192.76 166.97 192.76C150.03 192.76 136.3 179.03 136.3 162.09C136.3 145.15 150.03 131.42 166.97 131.42C183.9 131.42 197.63 145.15 197.63 162.09Z" />
		<g id="&lt;Group&gt;">
			<path id="&lt;Path&gt;" class="shp1" d="M166.97 119.77C164.94 119.77 163.29 118.13 163.29 116.1L163.29 89.94C163.29 87.91 164.94 86.27 166.97 86.27C169 86.27 170.64 87.91 170.64 89.94L170.64 116.1C170.64 118.13 169 119.77 166.97 119.77Z" />
			<path id="&lt;Path&gt;" class="shp1" d="M166.97 237.91C164.94 237.91 163.29 236.27 163.29 234.24L163.29 208.08C163.29 206.05 164.94 204.41 166.97 204.41C169 204.41 170.64 206.05 170.64 208.08L170.64 234.24C170.64 236.27 169 237.91 166.97 237.91Z" />
		</g>
		<g id="&lt;Group&gt;">
			<path id="&lt;Path&gt;" class="shp1" d="M196.89 132.17C195.45 130.73 195.45 128.4 196.89 126.97L215.38 108.47C216.82 107.04 219.15 107.04 220.58 108.47C222.02 109.91 222.02 112.24 220.58 113.67L202.09 132.17C200.65 133.6 198.33 133.6 196.89 132.17Z" />
			<path id="&lt;Path&gt;" class="shp1" d="M113.35 215.71C111.92 214.27 111.92 211.94 113.35 210.51L131.84 192.01C133.28 190.58 135.61 190.58 137.04 192.01C138.48 193.45 138.48 195.78 137.04 197.21L118.55 215.71C117.11 217.14 114.79 217.14 113.35 215.71Z" />
		</g>
		<g id="&lt;Group&gt;">
			<path id="&lt;Path&gt;" class="shp1" d="M209.28 162.09C209.28 160.06 210.93 158.41 212.96 158.41L239.11 158.41C241.14 158.41 242.79 160.06 242.79 162.09C242.79 164.12 241.14 165.77 239.11 165.77L212.96 165.77C210.93 165.77 209.28 164.12 209.28 162.09Z" />
			<path id="&lt;Path&gt;" class="shp1" d="M91.14 162.09C91.14 160.06 92.79 158.41 94.82 158.41L120.97 158.41C123 158.41 124.65 160.06 124.65 162.09C124.65 164.12 123 165.77 120.97 165.77L94.82 165.77C92.79 165.77 91.14 164.12 91.14 162.09Z" />
		</g>
		<g id="&lt;Group&gt;">
			<path id="&lt;Path&gt;" class="shp1" d="M196.89 192.01C198.33 190.58 200.65 190.58 202.09 192.01L220.58 210.51C222.02 211.94 222.02 214.27 220.58 215.71C219.15 217.14 216.82 217.14 215.38 215.71L196.89 197.21C195.45 195.78 195.45 193.45 196.89 192.01Z" />
			<path id="&lt;Path&gt;" class="shp1" d="M113.35 108.47C114.79 107.04 117.11 107.04 118.55 108.47L137.04 126.97C138.48 128.4 138.48 130.73 137.04 132.17C135.61 133.6 133.28 133.6 131.84 132.17L113.35 113.67C111.92 112.24 111.92 109.91 113.35 108.47Z" />
		</g>
	</g>
</svg>