<svg version="1.2" baseProfile="tiny-ps" xmlns="http://www.w3.org/2000/svg" viewBox="0 0 331 331" width="331" height="331">
	<title>&lt;Group&gt;</title>
	<style>
		tspan { white-space:pre }
		.shp0 { fill: #2360a1 } 
		.shp1 { fill: #ffffff } 
		.shp2 { fill: #b9d7ff } 
	</style>
	<path id="Forma 1" class="shp0" d="M165.5 331C73.98 331 0 257.02 0 165.5C0 73.98 73.98 0 165.5 0C257.02 0 331 73.98 331 165.5C331 257.02 257.02 331 165.5 331Z" />
	<g id="&lt;Group&gt;">
		<path id="&lt;Path&gt;" class="shp1" d="M231.86 151.75C231.78 151.75 231.7 151.78 231.61 151.78C233.16 148.21 234.02 144.28 234.02 140.15C234.02 123.94 220.88 110.8 204.68 110.8C198.95 110.8 193.62 112.47 189.1 115.31C182.99 100.46 168.4 89.99 151.34 89.99C128.79 89.99 110.51 108.27 110.51 130.82C110.51 132.53 110.65 134.2 110.85 135.85C110.74 135.85 110.63 135.83 110.51 135.83C95.39 135.83 83.14 148.09 83.14 163.21C83.14 178.33 95.39 190.58 110.51 190.58L231.86 190.58C242.58 190.58 251.27 181.89 251.27 171.17C251.27 160.45 242.58 151.75 231.86 151.75Z" />
		<path id="&lt;Path&gt;" class="shp2" d="M136.94 238.42C133.64 245.28 125.41 248.17 118.54 244.87C111.68 241.57 108.79 233.34 112.09 226.48C114.29 221.9 122.5 215.43 136.72 207.06C139.06 223.39 139.14 233.84 136.94 238.42Z" />
		<path id="&lt;Path&gt;" class="shp2" d="M171.21 238.42C167.92 245.28 159.68 248.17 152.82 244.87C145.96 241.57 143.07 233.34 146.37 226.48C148.57 221.9 156.78 215.43 170.99 207.06C173.34 223.39 173.41 233.84 171.21 238.42Z" />
		<path id="&lt;Path&gt;" class="shp2" d="M205.97 238.42C202.68 245.28 194.44 248.17 187.58 244.87C180.72 241.57 177.83 233.34 181.13 226.48C183.33 221.9 191.53 215.43 205.75 207.06C208.1 223.39 208.17 233.84 205.97 238.42Z" />
	</g>
</svg>