<svg version="1.2" baseProfile="tiny-ps" xmlns="http://www.w3.org/2000/svg" viewBox="0 0 331 331" width="331" height="331">
	<title>&lt;Group&gt;</title>
	<style>
		tspan { white-space:pre }
		.shp0 { fill: #2360a1 } 
		.shp1 { fill: #b9d7ff } 
		.shp2 { fill: #ffffff } 
	</style>
	<path id="Forma 1" class="shp0" d="M165.5 331C73.98 331 0 257.02 0 165.5C0 73.98 73.98 0 165.5 0C257.02 0 331 73.98 331 165.5C331 257.02 257.02 331 165.5 331Z" />
	<g id="&lt;Group&gt;">
		<path id="&lt;Path&gt;" class="shp1" d="M257.66 150.37C257.59 150.37 257.53 150.39 257.46 150.39C258.74 147.44 259.46 144.18 259.46 140.75C259.46 127.31 248.56 116.41 235.12 116.41C230.37 116.41 225.95 117.79 222.2 120.15C217.13 107.83 205.03 99.15 190.88 99.15C172.18 99.15 157.02 114.31 157.02 133.02C157.02 134.43 157.13 135.81 157.3 137.18C157.21 137.18 157.11 137.17 157.02 137.17C144.48 137.17 134.31 147.33 134.31 159.87C134.31 172.41 144.48 182.58 157.02 182.58L257.66 182.58C266.56 182.58 273.77 175.37 273.77 166.48C273.77 157.58 266.56 150.37 257.66 150.37Z" />
		<path id="&lt;Path&gt;" class="shp2" d="M217.31 171.56C217.23 171.56 217.15 171.58 217.07 171.58C218.61 168.01 219.47 164.08 219.47 159.95C219.47 143.74 206.34 130.6 190.13 130.6C184.4 130.6 179.07 132.27 174.56 135.11C168.45 120.26 153.85 109.8 136.8 109.8C114.25 109.8 95.97 128.08 95.97 150.63C95.97 152.33 96.1 154 96.31 155.65C96.19 155.65 96.08 155.63 95.97 155.63C80.85 155.63 68.59 167.89 68.59 183.01C68.59 198.13 80.85 210.39 95.97 210.39L217.31 210.39C228.04 210.39 236.73 201.69 236.73 190.97C236.73 180.25 228.04 171.56 217.31 171.56Z" />
	</g>
</svg>