<svg version="1.2" baseProfile="tiny-ps" xmlns="http://www.w3.org/2000/svg" viewBox="0 0 331 331" width="331" height="331">
	<title>&lt;Group&gt;</title>
	<style>
		tspan { white-space:pre }
		.shp0 { fill: #2360a1 } 
		.shp1 { fill: #ffdc7b } 
		.shp2 { fill: #ffffff } 
	</style>
	<path id="Forma 1" class="shp0" d="M165.5 331C73.98 331 0 257.02 0 165.5C0 73.98 73.98 0 165.5 0C257.02 0 331 73.98 331 165.5C331 257.02 257.02 331 165.5 331Z" />
	<g id="&lt;Group&gt;">
		<g id="&lt;Group&gt;">
			<path id="&lt;Path&gt;" class="shp1" d="M152.66 142.07C152.66 156.44 141.01 168.09 126.64 168.09C112.27 168.09 100.61 156.44 100.61 142.07C100.61 127.7 112.27 116.05 126.64 116.05C141.01 116.05 152.66 127.7 152.66 142.07Z" />
			<g id="&lt;Group&gt;">
				<path id="&lt;Path&gt;" class="shp1" d="M126.64 106.16C124.91 106.16 123.52 104.76 123.52 103.04L123.52 80.85C123.52 79.12 124.91 77.73 126.64 77.73C128.36 77.73 129.76 79.12 129.76 80.85L129.76 103.04C129.76 104.76 128.36 106.16 126.64 106.16Z" />
				<path id="&lt;Path&gt;" class="shp1" d="M126.64 206.41C124.91 206.41 123.52 205.02 123.52 203.29L123.52 181.1C123.52 179.38 124.91 177.98 126.64 177.98C128.36 177.98 129.76 179.38 129.76 181.1L129.76 203.29C129.76 205.02 128.36 206.41 126.64 206.41Z" />
			</g>
			<g id="&lt;Group&gt;">
				<path id="&lt;Path&gt;" class="shp1" d="M152.03 116.68C150.81 115.46 150.81 113.48 152.03 112.27L167.72 96.57C168.94 95.35 170.92 95.35 172.14 96.57C173.35 97.79 173.35 99.76 172.14 100.98L156.44 116.68C155.22 117.9 153.25 117.9 152.03 116.68Z" />
				<path id="&lt;Path&gt;" class="shp1" d="M81.14 187.57C79.92 186.35 79.92 184.37 81.14 183.15L96.83 167.46C98.05 166.24 100.03 166.24 101.25 167.46C102.46 168.68 102.46 170.65 101.25 171.87L85.55 187.57C84.33 188.78 82.36 188.78 81.14 187.57Z" />
			</g>
			<g id="&lt;Group&gt;">
				<path id="&lt;Path&gt;" class="shp1" d="M162.55 142.07C162.55 140.35 163.94 138.95 165.67 138.95L187.86 138.95C189.58 138.95 190.98 140.35 190.98 142.07C190.98 143.79 189.58 145.19 187.86 145.19L165.67 145.19C163.94 145.19 162.55 143.79 162.55 142.07Z" />
				<path id="&lt;Path&gt;" class="shp1" d="M62.29 142.07C62.29 140.35 63.69 138.95 65.41 138.95L87.61 138.95C89.33 138.95 90.73 140.35 90.73 142.07C90.73 143.79 89.33 145.19 87.61 145.19L65.41 145.19C63.69 145.19 62.29 143.79 62.29 142.07Z" />
			</g>
			<g id="&lt;Group&gt;">
				<path id="&lt;Path&gt;" class="shp1" d="M152.03 167.46C153.25 166.24 155.22 166.24 156.44 167.46L172.14 183.15C173.35 184.37 173.35 186.35 172.14 187.57C170.92 188.78 168.94 188.78 167.72 187.57L152.03 171.87C150.81 170.65 150.81 168.68 152.03 167.46Z" />
				<path id="&lt;Path&gt;" class="shp1" d="M81.14 96.57C82.36 95.35 84.33 95.35 85.55 96.57L101.25 112.27C102.46 113.48 102.46 115.46 101.25 116.68C100.03 117.9 98.05 117.9 96.83 116.68L81.14 100.98C79.92 99.76 79.92 97.79 81.14 96.57Z" />
			</g>
		</g>
		<path id="&lt;Path&gt;" class="shp2" d="M245.87 187.56C245.79 187.56 245.71 187.58 245.63 187.58C247.17 184.01 248.04 180.08 248.04 175.95C248.04 159.74 234.9 146.6 218.69 146.6C212.96 146.6 207.64 148.27 203.12 151.11C197.01 136.26 182.41 125.8 165.36 125.8C142.81 125.8 124.53 144.08 124.53 166.63C124.53 168.33 124.67 170 124.87 171.65C124.75 171.65 124.64 171.63 124.53 171.63C109.41 171.63 97.15 183.89 97.15 199.01C97.15 214.13 109.41 226.39 124.53 226.39L245.87 226.39C256.6 226.39 265.29 217.69 265.29 206.97C265.29 196.25 256.6 187.56 245.87 187.56Z" />
	</g>
</svg>