<svg version="1.2" baseProfile="tiny-ps" xmlns="http://www.w3.org/2000/svg" viewBox="0 0 331 331" width="331" height="331">
	<title>&lt;Path&gt;</title>
	<style>
		tspan { white-space:pre }
		.shp0 { fill: #2360a1 } 
		.shp1 { fill: #ffffff } 
		.shp2 { fill: #b9d7ff } 
		.shp3 { fill: #e84131 } 
	</style>
	<path id="Forma 1" class="shp0" d="M165.5 331C73.98 331 0 257.02 0 165.5C0 73.98 73.98 0 165.5 0C257.02 0 331 73.98 331 165.5C331 257.02 257.02 331 165.5 331Z" />
	<path id="&lt;Path&gt;" class="shp1" d="M180.19 179.88L180.19 89.82C180.19 81.55 173.48 74.84 165.2 74.84C156.93 74.84 150.22 81.55 150.22 89.82L150.22 179.88C135.9 185.77 125.82 199.85 125.82 216.3C125.82 238.05 143.45 255.69 165.2 255.69C186.96 255.69 204.59 238.05 204.59 216.3C204.59 199.85 194.51 185.77 180.19 179.88Z" />
	<path id="&lt;Path&gt;" class="shp2" d="M165.2 248.49C147.45 248.49 133.01 234.05 133.01 216.3C133.01 203.2 140.84 191.52 152.96 186.52L157.42 184.69L157.42 89.82C157.42 85.53 160.91 82.03 165.2 82.03C169.5 82.03 172.99 85.53 172.99 89.82L172.99 184.69L177.45 186.52C189.57 191.52 197.4 203.2 197.4 216.3C197.4 234.05 182.96 248.49 165.2 248.49Z" />
	<path id="&lt;Path&gt;" class="shp3" d="M177.45 186.53L172.99 184.69L172.99 103.62L157.42 103.62L157.42 184.69L152.96 186.53C140.84 191.52 133.01 203.2 133.01 216.3C133.01 234.05 147.45 248.5 165.2 248.5C182.96 248.5 197.4 234.05 197.4 216.3C197.4 203.2 189.57 191.52 177.45 186.53Z" />
	<path id="&lt;Path&gt;" class="shp1" d="M165.21 233.61C149.01 233.61 147.11 223.8 159.49 204.17L159.49 210.99L165.21 197.36L170.91 210.99L170.91 204.17C183.31 223.8 181.41 233.61 165.21 233.61Z" />
</svg>