<svg version="1.2" baseProfile="tiny-ps" xmlns="http://www.w3.org/2000/svg" viewBox="0 0 331 331" width="331" height="331">
	<title>&lt;Path&gt;</title>
	<style>
		tspan { white-space:pre }
		.shp0 { fill: #2360a1 } 
		.shp1 { fill: #ffffff } 
	</style>
	<path id="Forma 1" class="shp0" d="M165.5 331C73.98 331 0 257.02 0 165.5C0 73.98 73.98 0 165.5 0C257.02 0 331 73.98 331 165.5C331 257.02 257.02 331 165.5 331Z" />
	<path id="&lt;Path&gt;" class="shp1" d="M223.49 170.1C223.41 170.1 223.33 170.12 223.25 170.12C224.79 166.55 225.65 162.62 225.65 158.49C225.65 142.28 212.51 129.15 196.31 129.15C190.58 129.15 185.25 130.81 180.73 133.65C174.62 118.8 160.03 108.34 142.97 108.34C120.42 108.34 102.14 126.62 102.14 149.17C102.14 150.87 102.28 152.54 102.48 154.19C102.37 154.19 102.26 154.17 102.14 154.17C87.02 154.17 74.77 166.43 74.77 181.55C74.77 196.67 87.02 208.93 102.14 208.93L223.49 208.93C234.21 208.93 242.91 200.23 242.91 189.51C242.91 178.79 234.21 170.1 223.49 170.1Z" />
	<path id="&lt;Path&gt;" class="shp1" d="M208.4 115.07L146.34 115.07C144.48 115.07 142.97 113.56 142.97 111.7C142.97 109.84 144.48 108.34 146.34 108.34L208.4 108.34C210.26 108.34 211.76 109.84 211.76 111.7C211.76 113.56 210.26 115.07 208.4 115.07Z" />
	<path id="&lt;Path&gt;" class="shp1" d="M258.62 115.07L222.62 115.07C220.76 115.07 219.25 113.56 219.25 111.7C219.25 109.84 220.76 108.34 222.62 108.34L258.62 108.34C260.48 108.34 261.99 109.84 261.99 111.7C261.99 113.56 260.48 115.07 258.62 115.07Z" />
	<path id="&lt;Path&gt;" class="shp1" d="M233.88 135.88L196.76 135.88C194.9 135.88 193.39 134.38 193.39 132.52C193.39 130.66 194.9 129.15 196.76 129.15L233.88 129.15C235.74 129.15 237.25 130.66 237.25 132.52C237.25 134.38 235.74 135.88 233.88 135.88Z" />
	<path id="&lt;Path&gt;" class="shp1" d="M258.44 135.88L248.59 135.88C246.73 135.88 245.22 134.38 245.22 132.52C245.22 130.66 246.73 129.15 248.59 129.15L258.44 129.15C260.3 129.15 261.8 130.66 261.8 132.52C261.8 134.38 260.3 135.88 258.44 135.88Z" />
	<path id="&lt;Path&gt;" class="shp1" d="M258.44 176.6L196.76 176.6C194.9 176.6 193.39 175.09 193.39 173.23C193.39 171.37 194.9 169.86 196.76 169.86L258.44 169.86C260.3 169.86 261.8 171.37 261.8 173.23C261.8 175.09 260.3 176.6 258.44 176.6Z" />
	<path id="&lt;Path&gt;" class="shp1" d="M258.44 208.93L196.76 208.93C194.9 208.93 193.39 207.42 193.39 205.56C193.39 203.7 194.9 202.19 196.76 202.19L258.44 202.19C260.3 202.19 261.8 203.7 261.8 205.56C261.8 207.42 260.3 208.93 258.44 208.93Z" />
</svg>